<svg xmlns="http://www.w3.org/2000/svg" width="80" height="79" viewBox="0 0 80 79">
    <g fill="none" fill-rule="evenodd">
        <g>
            <g>
                <g>
                    <g>
                        <path fill="#65C2E1" d="M12.417 49c-1.175 0-1.735-.52-1.735-1.743 0-1.589.708-4.735 3.94-8.096l1.384-1.437c2.057-2.137 2.56-3.238 2.56-4.887 0-1.65-.649-2.75-1.972-2.75-1.5 0-1.941 1.192-2.087 2.992-.088 1.224-.884 1.743-1.794 1.743-1.471 0-1.795-1.221-1.795-2.26 0-3.269 2.06-5.562 5.528-5.562 3.913 0 6.06 1.988 6.06 5.897 0 2.016-.824 4.065-2.587 5.896l-2.443 2.539c-1.588 1.649-2.354 2.87-2.706 4.185h5.795c1.325 0 2.117.396 2.117 1.74 0 1.346-.792 1.743-2.117 1.743h-8.148zM31.36 32.567h-.062l-4.203 8.603h4.266v-8.603zm0 11.76H25.99c-1.484 0-2.307-.417-2.307-1.637 0-.597.191-1.22.634-2.115l6.162-12.116c.631-1.22 1.168-1.459 2.59-1.459 1.549 0 2.148.862 2.148 1.876V41.17h.728c.756 0 1.738.389 1.738 1.579s-.982 1.578-1.738 1.578h-.728v2.5c0 1.489-.758 2.173-1.927 2.173-1.17 0-1.928-.684-1.928-2.174v-2.499zM52.714 32.666c-1.451 0-2.032-1.13-2.032-1.803 0-.733.58-1.863 2.032-1.863h9.902c1.322 0 2.066.276 2.066 1.529 0 .334-.066.67-1.259 2.841-2.065 3.789-4.321 10.632-4.806 15.522-.13 1.281-.934 2.108-2.355 2.108-1.419 0-1.967-.918-1.967-2.108 0-2.75 2.741-11.183 5.806-16.226h-7.387zM39.892 53c-.258 0-.52-.046-.776-.142-1.143-.43-1.721-1.707-1.293-2.852l9.58-25.57c.43-1.148 1.71-1.723 2.845-1.294 1.143.43 1.72 1.705 1.293 2.85l-9.58 25.57c-.333.89-1.176 1.438-2.069 1.438" transform="translate(-1129 -885) translate(257 746) translate(807 141) translate(67)"/>
                        <path fill="#093364" fill-opacity=".599" d="M10.77 60.806l4.618 6.202c0 1.612.906 2.917 2.028 2.917C22.946 73.308 28.046 75 32.713 75s13.57-1.692 26.708-5.075c1.123 0 2.029-1.305 2.029-2.917l5.232-6.202c-6.316 3.882-18.383 7.24-28.19 7.24-8.545-.001-23.025-2.937-28.81-7.24" transform="translate(-1129 -885) translate(257 746) translate(807 141) translate(67)"/>
                        <path stroke="#65C2E1" stroke-linecap="round" stroke-linejoin="round" stroke-width="4" d="M71.73 21.116c2.53 5.011 3.952 10.668 3.952 16.654 0 20.563-16.788 37.23-37.5 37.23-20.71 0-37.5-16.667-37.5-37.23C.682 24.984 7.175 13.703 17.066 7M37.682 0c6.503 0 12.631 1.446 18 4M60.682 8c2.618 2.048 4.97 4.399 7 7" transform="translate(-1129 -885) translate(257 746) translate(807 141) translate(67)"/>
                        <path stroke="#65C2E1" stroke-linecap="round" stroke-linejoin="round" stroke-width="4" d="M9.682 2L20.682 3.964 18.889 16" transform="translate(-1129 -885) translate(257 746) translate(807 141) translate(67)"/>
                    </g>
                </g>
            </g>
        </g>
    </g>
</svg>
