<svg xmlns="http://www.w3.org/2000/svg" width="94" height="84" viewBox="0 0 94 84">
    <g fill="none" fill-rule="evenodd">
        <g>
            <g>
                <g>
                    <g>
                        <path fill="#6B85A2" d="M.961 69.802C.961 71.569 1.985 73 3.248 73h56.429c1.263 0 2.284-1.431 2.284-3.198L55.317 63c-7.123 4.258-16.117 5.745-27.178 5.745C18.505 68.745 7.484 67.72.961 63v6.802z" transform="translate(-304 -883) translate(257 746) translate(0 139) translate(48)"/>
                        <path stroke="#65C2E1" stroke-linecap="round" stroke-linejoin="round" stroke-width="4" d="M2.461 46L2.461 49M68.961 21L36.464 0 3.961 21M65.847 74.458L71.445 80l16.609-16.947c5.231-5.494 3.14-14.911-4.17-17.007-1.101-.319-2.27-.487-3.474-.487-3.794 0-6.677 1.72-8.965 4.378-.06-.072-.145-.12-.206-.187" transform="translate(-304 -883) translate(257 746) translate(0 139) translate(48)"/>
                        <path stroke="#65C2E1" stroke-linecap="round" stroke-linejoin="round" stroke-width="4" d="M1.961 56.72v14.84c0 1.6 1.307 2.898 2.917 2.898h60.97L54.73 63.447c-6.524-6.282-2.494-17.741 6.587-17.885.066 0 .136-.003.205-.003 3.698 0 7.41 1.647 9.716 4.191V32.557L36.6 11 1.961 32.557v4.724" transform="translate(-304 -883) translate(257 746) translate(0 139) translate(48)"/>
                    </g>
                </g>
            </g>
        </g>
    </g>
</svg>
