<svg xmlns="http://www.w3.org/2000/svg" width="81" height="80" viewBox="0 0 81 80">
    <g fill="none" fill-rule="evenodd">
        <g>
            <g>
                <g>
                    <g>
                        <path fill="#093364" fill-opacity=".601" d="M2 64v6.802C2 72.569 3.43 74 5.198 74h69.604C76.57 74 78 72.569 78 70.802V64c-9.956 4.258-22.535 5.745-38 5.745-13.469 0-28.88-1.026-38-5.745" transform="translate(-849 -882) translate(257 746) translate(527 138) translate(66)"/>
                        <path stroke="#65C2E1" stroke-linecap="round" stroke-linejoin="round" stroke-width="4" d="M2 12.648V3.195C2 1.43 3.43 0 5.198 0h69.604C76.57 0 78 1.43 78 3.195v69.607C78 74.57 76.57 76 74.802 76H5.198C3.43 76 2 74.57 2 72.802V33.734M1.5 21L1.5 25M19 29.5L61 29.5M19 43.5L61 43.5M19 58.5L43 58.5" transform="translate(-849 -882) translate(257 746) translate(527 138) translate(66)"/>
                        <path fill="#65C2E1" d="M18.521 14.134L18.5 14.134 17.417 14.66 17.201 13.709 18.668 13 19.799 13 19.799 19 18.521 19zM25.212 16.6v-1.228c0-.323.04-.675.07-.987h-.04c-.14.332-.278.6-.448.931l-.684 1.267v.016h1.102zm0 2.4v-1.43H23v-.833L25.112 13h1.253v3.6H27v.97h-.635V19h-1.153zM29.365 14.955c.01.569.222 1.035.645 1.035.242 0 .455-.153.529-.304.051-.108.064-.234.064-.621 0-.777-.255-1.208-.635-1.208-.349 0-.623.387-.603 1.098zm-.836 3.062c.265 0 .403-.008.626-.044.274-.044.568-.162.813-.351.297-.245.548-.66.667-1.179h-.032c-.222.206-.542.357-.984.357-.89 0-1.619-.675-1.619-1.746 0-1.01.72-2.054 2.042-2.054 1.28 0 1.958.991 1.958 2.405 0 1.324-.497 2.252-1.132 2.829-.426.387-1.03.648-1.703.739-.213.027-.423.027-.636.027v-.983zM35.389 15.999c-.02 1.37.18 1.99.641 1.99.424 0 .581-.648.581-1.99 0-1.26-.138-1.991-.58-1.991-.43 0-.652.631-.642 1.99M38 15.972c0 2.1-.895 3.029-2.002 3.029C34.507 19 34 17.53 34 16.026 34 14.34 34.632 13 36.043 13 37.641 13 38 14.576 38 15.971M43 13L43 13.794 41.271 19 40.186 19 41.873 14.081 41.873 14.061 40 14.061 40 13z" transform="translate(-849 -882) translate(257 746) translate(527 138) translate(66)"/>
                    </g>
                </g>
            </g>
        </g>
    </g>
</svg>
